<svg xmlns="http://www.w3.org/2000/svg" xmlns:svg="http://www.w3.org/2000/svg" id="svg2985" width="140.029" height="30.728" version="1.1" xml:space="preserve"><metadata id="metadata2991"/><defs id="defs2989"><clipPath id="clipPath3021" clipPathUnits="userSpaceOnUse"><path id="path3023" d="m 17.008,17.008 561.26,0 0,807.873 -561.26,0 0,-807.873 z"/></clipPath><clipPath id="clipPath3101" clipPathUnits="userSpaceOnUse"><path id="path3103" d="m 0,0 595.276,0 0,841.89 L 0,841.89 0,0 z"/></clipPath></defs><g id="g2993" transform="matrix(1.25,0,0,-1.25,-100.27145,1037.0681)"><g id="g3017"><g id="g3019" clip-path="url(#clipPath3021)"><g id="g3025" transform="translate(380.7955,-138.8896)"><path id="path3027" fill="#8d0f50" fill-opacity="1" fill-rule="nonzero" stroke="none" d="M 0,0 -137.46,47.79 -249.912,155.015 -112.448,107.226 0,0 z"/></g></g></g><g id="g3049" transform="matrix(0.34898699,0,0,0.34898699,86.078749,815.27685)"><path id="path3051" fill="#53801b" fill-opacity="1" fill-rule="nonzero" stroke="none" d="M 0,0 -14.944,17.194 -4.414,31.729 10.529,14.535 0,0 z"/></g><g id="g3053" transform="matrix(0.34898699,0,0,0.34898699,89.753233,820.34941)"><path id="path3055" fill="#86cd2e" fill-opacity="1" fill-rule="nonzero" stroke="none" d="M 0,0 -14.943,17.194 1.716,26.663 16.659,9.468 0,0 z"/></g><g id="g3057" transform="matrix(0.34898699,0,0,0.34898699,94.895522,823.32327)"><path id="path3059" fill="#507a19" fill-opacity="1" fill-rule="nonzero" stroke="none" d="M 0,0 -10.529,-14.535 -27.188,-24.003 -16.659,-9.468 0,0 z"/></g><g id="g3061" transform="matrix(0.34898699,0,0,0.34898699,94.91866,814.37664)"><path id="path3063" fill="#971058" fill-opacity="1" fill-rule="nonzero" stroke="none" d="M 0,0 -14.943,17.194 -4.414,31.729 10.529,14.535 0,0 z"/></g><g id="g3065" transform="matrix(0.34898699,0,0,0.34898699,98.593283,819.4492)"><path id="path3067" fill="#ee1a97" fill-opacity="1" fill-rule="nonzero" stroke="none" d="M 0,0 -14.944,17.194 1.716,26.663 16.659,9.468 0,0 z"/></g><g id="g3069" transform="matrix(0.34898699,0,0,0.34898699,104.40716,822.75355)"><path id="path3071" fill="#8d0f50" fill-opacity="1" fill-rule="nonzero" stroke="none" d="m 0,0 -10.529,-14.535 -16.66,-9.468 10.53,14.535 L 0,0 z"/></g><g id="g3073" transform="matrix(0.34898699,0,0,0.34898699,85.432425,805.99795)"><path id="path3075" fill="#30799a" fill-opacity="1" fill-rule="nonzero" stroke="none" d="M 0,0 -14.944,17.194 -4.414,31.729 10.529,14.535 0,0 z"/></g><g id="g3077" transform="matrix(0.34898699,0,0,0.34898699,89.106944,811.07044)"><path id="path3079" fill="#4cc4f2" fill-opacity="1" fill-rule="nonzero" stroke="none" d="M 0,0 -14.943,17.194 1.716,26.663 16.659,9.468 0,0 z"/></g><g id="g3081" transform="matrix(0.34898699,0,0,0.34898699,94.920858,814.37482)"><path id="path3083" fill="#286481" fill-opacity="1" fill-rule="nonzero" stroke="none" d="M 0,0 -10.529,-14.535 -27.188,-24.003 -16.659,-9.468 0,0 z"/></g><g id="g3085" transform="matrix(0.34898699,0,0,0.34898699,94.307409,805.07205)"><path id="path3087" fill="#9a530a" fill-opacity="1" fill-rule="nonzero" stroke="none" d="M 0,0 -14.944,17.194 -4.414,31.729 10.529,14.535 0,0 z"/></g><g id="g3089" transform="matrix(0.34898699,0,0,0.34898699,97.982032,810.14457)"><path id="path3091" fill="#f68712" fill-opacity="1" fill-rule="nonzero" stroke="none" d="M 0,0 -14.944,17.194 1.716,26.663 16.659,9.468 0,0 z"/></g><g id="g3093" transform="matrix(0.34898699,0,0,0.34898699,103.79584,813.44893)"><path id="path3095" fill="#824508" fill-opacity="1" fill-rule="nonzero" stroke="none" d="M 0,0 -10.529,-14.535 -27.188,-24.003 -16.659,-9.468 0,0 z"/></g><g id="g3105" transform="matrix(0.46531599,0,0,0.46531599,121.63347,812.25664)"><path id="path3107" fill="#fff" fill-opacity="1" fill-rule="nonzero" stroke="none" d="m 0,0 9.583,0 0,3.029 -2.906,0 0,5.936 7.141,0 0,3.246 -7.141,0 0,6.306 5.534,0 0,-2.257 3.462,0 0,5.688 -15.673,0 0,-3.06 2.628,0 0,-15.859 L 0,3.029 0,0 z m 34.561,0 9.212,0 0,3.029 -2.535,0 0,5.379 2.01,0 c 1.267,0 1.669,-0.278 2.133,-1.112 L 48.503,1.638 C 49.183,0.371 49.739,0 51.563,0 l 2.566,0 0,3.029 -0.711,0 c -0.742,0 -1.175,0.155 -1.484,0.711 l -2.535,4.576 c -0.432,0.803 -1.082,1.143 -1.082,1.143 l 0,0.062 c 2.535,0.866 4.143,3.03 4.143,6.09 0,3.092 -1.608,5.07 -4.05,5.874 -1.236,0.371 -2.566,0.463 -4.173,0.463 l -9.676,0 0,-3.06 2.628,0 0,-15.859 -2.628,0 0,-3.029 z m 6.677,11.654 0,7.049 2.968,0 c 1.02,0 1.855,-0.124 2.473,-0.402 1.206,-0.495 1.731,-1.608 1.731,-3.03 0,-2.349 -1.391,-3.617 -3.524,-3.617 l -3.648,0 z M 72.956,0 l 9.335,0 0,3.029 -2.658,0 0,15.859 2.658,0 0,3.06 -9.335,0 0,-3.06 2.627,0 0,-15.859 -2.627,0 0,-3.029 z"/></g><g id="g3109" transform="matrix(0.46531599,0,0,0.46531599,169.0796,815.6045)"><path id="path3111" fill="#fff" fill-opacity="1" fill-rule="nonzero" stroke="none" d="m 0,0 0,-2.43 c 0,-3.209 3.779,-4.799 7.319,-4.799 4.019,0 7.679,2.01 7.679,6.359 0,3.99 -3.18,5.249 -6.359,6.389 -2.22,0.84 -4.2,1.53 -4.2,3.48 0,1.619 1.44,2.339 3.18,2.339 1.59,0 3.179,-0.57 3.179,-1.65 l 0,-1.439 3.57,0 0,2.789 c 0,2.46 -3.39,3.75 -6.749,3.75 -3.66,0 -7.139,-1.65 -7.139,-5.939 0,-3.81 2.789,-5.1 5.639,-6.179 2.46,-0.96 4.889,-1.65 4.889,-3.81 0,-1.71 -1.53,-2.639 -3.689,-2.639 -2.01,0 -3.75,0.809 -3.75,2.189 L 3.569,0 0,0 z"/></g><g id="g3113" transform="matrix(0.46531599,0,0,0.46531599,185.26194,815.6045)"><path id="path3115" fill="#fff" fill-opacity="1" fill-rule="nonzero" stroke="none" d="m 0,0 0,-2.43 c 0,-3.209 3.779,-4.799 7.319,-4.799 4.019,0 7.679,2.01 7.679,6.359 0,3.99 -3.18,5.249 -6.359,6.389 -2.22,0.84 -4.2,1.53 -4.2,3.48 0,1.619 1.44,2.339 3.18,2.339 1.589,0 3.179,-0.57 3.179,-1.65 l 0,-1.439 3.57,0 0,2.789 c 0,2.46 -3.39,3.75 -6.749,3.75 -3.66,0 -7.139,-1.65 -7.139,-5.939 0,-3.81 2.789,-5.1 5.639,-6.179 2.46,-0.96 4.889,-1.65 4.889,-3.81 0,-1.71 -1.53,-2.639 -3.689,-2.639 -2.01,0 -3.75,0.809 -3.75,2.189 L 3.569,0 0,0 z"/></g><flowRoot id="flowRoot3154" fill="#000" fill-opacity="1" stroke="none" font-family="Sans" font-size="40" font-style="normal" font-weight="normal" letter-spacing="0" word-spacing="0" xml:space="preserve" style="line-height:125%"><flowRegion id="flowRegion3156"><rect id="rect3158" width="146.066" height="113.862" x="134.564" y="335.836"/></flowRegion><flowPara id="flowPara3160"/></flowRoot><flowRoot id="flowRoot3170" fill="#000" fill-opacity="1" stroke="none" font-family="Sans" font-size="40" font-style="normal" font-weight="normal" letter-spacing="0" transform="matrix(0.8,0,0,-0.8,0,841.89)" word-spacing="0" xml:space="preserve" style="line-height:125%"><flowRegion id="flowRegion3172"><rect id="rect3174" width="806.236" height="134.564" x="-67.857" y="-1.15"/></flowRegion><flowPara id="flowPara3176"/></flowRoot></g></svg>