<svg xmlns="http://www.w3.org/2000/svg" xmlns:svg="http://www.w3.org/2000/svg" id="svg2985" width="30.237" height="30.728" version="1.1" xml:space="preserve"><metadata id="metadata2991"/><defs id="defs2989"><clipPath id="clipPath3021" clipPathUnits="userSpaceOnUse"><path id="path3023" d="m 17.008,17.008 561.26,0 0,807.873 -561.26,0 0,-807.873 z"/></clipPath><clipPath id="clipPath3101" clipPathUnits="userSpaceOnUse"><path id="path3103" d="m 0,0 595.276,0 0,841.89 L 0,841.89 0,0 z"/></clipPath></defs><g id="g2993" transform="matrix(1.25,0,0,-1.25,-100.27145,1037.0681)"><g id="g3017"><g id="g3019" clip-path="url(#clipPath3021)"><g id="g3025" transform="translate(380.7955,-138.8896)"><path id="path3027" fill="#8d0f50" fill-opacity="1" fill-rule="nonzero" stroke="none" d="M 0,0 -137.46,47.79 -249.912,155.015 -112.448,107.226 0,0 z"/></g></g></g><g id="g3049" transform="matrix(0.34898699,0,0,0.34898699,86.078749,815.27685)"><path id="path3051" fill="#53801b" fill-opacity="1" fill-rule="nonzero" stroke="none" d="M 0,0 -14.944,17.194 -4.414,31.729 10.529,14.535 0,0 z"/></g><g id="g3053" transform="matrix(0.34898699,0,0,0.34898699,89.753233,820.34941)"><path id="path3055" fill="#86cd2e" fill-opacity="1" fill-rule="nonzero" stroke="none" d="M 0,0 -14.943,17.194 1.716,26.663 16.659,9.468 0,0 z"/></g><g id="g3057" transform="matrix(0.34898699,0,0,0.34898699,94.895522,823.32327)"><path id="path3059" fill="#507a19" fill-opacity="1" fill-rule="nonzero" stroke="none" d="M 0,0 -10.529,-14.535 -27.188,-24.003 -16.659,-9.468 0,0 z"/></g><g id="g3061" transform="matrix(0.34898699,0,0,0.34898699,94.91866,814.37664)"><path id="path3063" fill="#971058" fill-opacity="1" fill-rule="nonzero" stroke="none" d="M 0,0 -14.943,17.194 -4.414,31.729 10.529,14.535 0,0 z"/></g><g id="g3065" transform="matrix(0.34898699,0,0,0.34898699,98.593283,819.4492)"><path id="path3067" fill="#ee1a97" fill-opacity="1" fill-rule="nonzero" stroke="none" d="M 0,0 -14.944,17.194 1.716,26.663 16.659,9.468 0,0 z"/></g><g id="g3069" transform="matrix(0.34898699,0,0,0.34898699,104.40716,822.75355)"><path id="path3071" fill="#8d0f50" fill-opacity="1" fill-rule="nonzero" stroke="none" d="m 0,0 -10.529,-14.535 -16.66,-9.468 10.53,14.535 L 0,0 z"/></g><g id="g3073" transform="matrix(0.34898699,0,0,0.34898699,85.432425,805.99795)"><path id="path3075" fill="#30799a" fill-opacity="1" fill-rule="nonzero" stroke="none" d="M 0,0 -14.944,17.194 -4.414,31.729 10.529,14.535 0,0 z"/></g><g id="g3077" transform="matrix(0.34898699,0,0,0.34898699,89.106944,811.07044)"><path id="path3079" fill="#4cc4f2" fill-opacity="1" fill-rule="nonzero" stroke="none" d="M 0,0 -14.943,17.194 1.716,26.663 16.659,9.468 0,0 z"/></g><g id="g3081" transform="matrix(0.34898699,0,0,0.34898699,94.920858,814.37482)"><path id="path3083" fill="#286481" fill-opacity="1" fill-rule="nonzero" stroke="none" d="M 0,0 -10.529,-14.535 -27.188,-24.003 -16.659,-9.468 0,0 z"/></g><g id="g3085" transform="matrix(0.34898699,0,0,0.34898699,94.307409,805.07205)"><path id="path3087" fill="#9a530a" fill-opacity="1" fill-rule="nonzero" stroke="none" d="M 0,0 -14.944,17.194 -4.414,31.729 10.529,14.535 0,0 z"/></g><g id="g3089" transform="matrix(0.34898699,0,0,0.34898699,97.982032,810.14457)"><path id="path3091" fill="#f68712" fill-opacity="1" fill-rule="nonzero" stroke="none" d="M 0,0 -14.944,17.194 1.716,26.663 16.659,9.468 0,0 z"/></g><g id="g3093" transform="matrix(0.34898699,0,0,0.34898699,103.79584,813.44893)"><path id="path3095" fill="#824508" fill-opacity="1" fill-rule="nonzero" stroke="none" d="M 0,0 -10.529,-14.535 -27.188,-24.003 -16.659,-9.468 0,0 z"/></g><flowRoot id="flowRoot3154" fill="#000" fill-opacity="1" stroke="none" font-family="Sans" font-size="40" font-style="normal" font-weight="normal" letter-spacing="0" word-spacing="0" xml:space="preserve" style="line-height:125%"><flowRegion id="flowRegion3156"><rect id="rect3158" width="146.066" height="113.862" x="134.564" y="335.836"/></flowRegion><flowPara id="flowPara3160"/></flowRoot><flowRoot id="flowRoot3170" fill="#000" fill-opacity="1" stroke="none" font-family="Sans" font-size="40" font-style="normal" font-weight="normal" letter-spacing="0" transform="matrix(0.8,0,0,-0.8,0,841.89)" word-spacing="0" xml:space="preserve" style="line-height:125%"><flowRegion id="flowRegion3172"><rect id="rect3174" width="806.236" height="134.564" x="-67.857" y="-1.15"/></flowRegion><flowPara id="flowPara3176"/></flowRoot></g></svg>